<svg id="visual" viewBox="0 0 960 300" width="960" height="300" xmlns="http://www.w3.org/2000/svg" xmlns:xlink="http://www.w3.org/1999/xlink" version="1.1"><rect x="0" y="0" width="960" height="300" fill="#001220"></rect><path d="M0 176L22.8 182.5C45.7 189 91.3 202 137 201.7C182.7 201.3 228.3 187.7 274 185.3C319.7 183 365.3 192 411.2 194.3C457 196.7 503 192.3 548.8 194C594.7 195.7 640.3 203.3 686 206.5C731.7 209.7 777.3 208.3 823 204.8C868.7 201.3 914.3 195.7 937.2 192.8L960 190L960 301L937.2 301C914.3 301 868.7 301 823 301C777.3 301 731.7 301 686 301C640.3 301 594.7 301 548.8 301C503 301 457 301 411.2 301C365.3 301 319.7 301 274 301C228.3 301 182.7 301 137 301C91.3 301 45.7 301 22.8 301L0 301Z" fill="#ff4c68"></path><path d="M0 202L22.8 206.8C45.7 211.7 91.3 221.3 137 226.7C182.7 232 228.3 233 274 233.2C319.7 233.3 365.3 232.7 411.2 226.3C457 220 503 208 548.8 204.2C594.7 200.3 640.3 204.7 686 208.2C731.7 211.7 777.3 214.3 823 216.3C868.7 218.3 914.3 219.7 937.2 220.3L960 221L960 301L937.2 301C914.3 301 868.7 301 823 301C777.3 301 731.7 301 686 301C640.3 301 594.7 301 548.8 301C503 301 457 301 411.2 301C365.3 301 319.7 301 274 301C228.3 301 182.7 301 137 301C91.3 301 45.7 301 22.8 301L0 301Z" fill="#f14169"></path><path d="M0 245L22.8 244.2C45.7 243.3 91.3 241.7 137 239.3C182.7 237 228.3 234 274 231C319.7 228 365.3 225 411.2 226.2C457 227.3 503 232.7 548.8 233.8C594.7 235 640.3 232 686 230.3C731.7 228.7 777.3 228.3 823 229.7C868.7 231 914.3 234 937.2 235.5L960 237L960 301L937.2 301C914.3 301 868.7 301 823 301C777.3 301 731.7 301 686 301C640.3 301 594.7 301 548.8 301C503 301 457 301 411.2 301C365.3 301 319.7 301 274 301C228.3 301 182.7 301 137 301C91.3 301 45.7 301 22.8 301L0 301Z" fill="#e33669"></path><path d="M0 253L22.8 252C45.7 251 91.3 249 137 248.5C182.7 248 228.3 249 274 251.3C319.7 253.7 365.3 257.3 411.2 258.5C457 259.7 503 258.3 548.8 258.5C594.7 258.7 640.3 260.3 686 258.8C731.7 257.3 777.3 252.7 823 252.8C868.7 253 914.3 258 937.2 260.5L960 263L960 301L937.2 301C914.3 301 868.7 301 823 301C777.3 301 731.7 301 686 301C640.3 301 594.7 301 548.8 301C503 301 457 301 411.2 301C365.3 301 319.7 301 274 301C228.3 301 182.7 301 137 301C91.3 301 45.7 301 22.8 301L0 301Z" fill="#d52c69"></path><path d="M0 263L22.8 264.5C45.7 266 91.3 269 137 272.7C182.7 276.3 228.3 280.7 274 280.7C319.7 280.7 365.3 276.3 411.2 273.5C457 270.7 503 269.3 548.8 271.3C594.7 273.3 640.3 278.7 686 277.7C731.7 276.7 777.3 269.3 823 265.7C868.7 262 914.3 262 937.2 262L960 262L960 301L937.2 301C914.3 301 868.7 301 823 301C777.3 301 731.7 301 686 301C640.3 301 594.7 301 548.8 301C503 301 457 301 411.2 301C365.3 301 319.7 301 274 301C228.3 301 182.7 301 137 301C91.3 301 45.7 301 22.8 301L0 301Z" fill="#c62368"></path></svg>